<?xml version="1.0" encoding="utf-8"?>
<!-- Generator: Adobe Illustrator 19.0.1, SVG Export Plug-In . SVG Version: 6.00 Build 0)  -->
<svg version="1.1" id="Слой_1" xmlns="http://www.w3.org/2000/svg" xmlns:xlink="http://www.w3.org/1999/xlink" x="0px" y="0px"
	 viewBox="0 0 568.472 146.993" style="enable-background:new 0 0 568.472 146.993;" xml:space="preserve">
<style type="text/css">
	.st0{fill:#ABCE62;}
	.st1{fill:#252933;}
	.st2{fill:#88B440;}
	.st3{fill:#2D3240;}
	.st4{fill:#F18421;}
</style>
<g>
	<g>
		<path class="st0" d="M539.234,76.956l-41.556-53.834c-0.6-0.777-1.525-1.232-2.506-1.232H141.294v114h353.878
			c0.981,0,1.907-0.455,2.506-1.232l41.556-53.834C540.114,79.686,540.114,78.096,539.234,76.956z"/>
		<path class="st1" d="M45.636,21.891c-13.841,0-25.166,11.325-25.166,25.166v63.667c0,13.841,11.325,25.166,25.166,25.166h95.658
			v-114H45.636z"/>
	</g>
	<g>
		<path class="st2" d="M554.515,70.448l-41.556-53.834c-0.599-0.777-1.525-1.232-2.506-1.232H141.294v114h369.159
			c0.981,0,1.907-0.455,2.506-1.232l41.556-53.834C555.395,73.178,555.395,71.588,554.515,70.448z"/>
		<path class="st3" d="M45.636,15.383c-13.841,0-25.166,11.325-25.166,25.166v63.667c0,13.841,11.325,25.166,25.166,25.166h95.658
			v-114H45.636z"/>
	</g>
</g>
<g>
	<g>
		<g>
			<g>
				<path class="st4" d="M120.866,58.545c-1.492-4.601-3.516-7.876-3.602-8.013c-0.102-0.164-0.211-0.329-0.363-0.449
					c-12.398-9.746-47.358-12.505-62.701,0.629c-0.147,0.126-0.251,0.293-0.347,0.461c-0.194,0.336-4.757,8.341-4.612,17.001
					c0.01,0.536,0.2,1.053,0.542,1.465c0.209,0.253,5.269,6.15,17.709,2.533c1.022-0.297,1.719-1.241,1.701-2.306l-0.145-8.635
					c1.685-1.621,16.535-10.718,33.368-0.137l0.145,8.635c0.018,1.065,0.746,1.985,1.777,2.248
					c12.554,3.199,17.413-2.865,17.614-3.125c0.328-0.424,0.501-0.947,0.492-1.483C122.397,64.599,121.867,61.63,120.866,58.545z"/>
			</g>
			<path class="st4" d="M96.944,68.664c-0.07-0.094-0.152-0.177-0.239-0.253v-3.225c0-0.686-0.561-1.247-1.247-1.247h-2.183
				c-0.686,0-1.247,0.561-1.247,1.247v2.807H79.552v-2.807c0-0.686-0.561-1.247-1.247-1.247h-2.183
				c-0.686,0-1.247,0.561-1.247,1.247v3.335c-0.045,0.048-0.095,0.09-0.135,0.143L57.478,92.501
				c-0.213,0.287-0.329,0.635-0.329,0.993v9.637c0,0.919,0.745,1.663,1.663,1.663h54.058c0.919,0,1.663-0.745,1.663-1.663v-9.637
				c0-0.358-0.115-0.706-0.329-0.993L96.944,68.664z M85.841,99.388c-5.971,0-10.812-4.84-10.812-10.812
				c0-5.971,4.84-10.812,10.812-10.812c5.971,0,10.812,4.84,10.812,10.812C96.653,94.548,91.812,99.388,85.841,99.388z"/>
			<circle class="st4" cx="85.841" cy="88.576" r="7.069"/>
		</g>
	</g>
</g>
</svg>
